<?xml version="1.0" encoding="UTF-8" standalone="no"?>
<svg
   xmlns:dc="http://purl.org/dc/elements/1.1/"
   xmlns:cc="http://creativecommons.org/ns#"
   xmlns:rdf="http://www.w3.org/1999/02/22-rdf-syntax-ns#"
   xmlns:svg="http://www.w3.org/2000/svg"
   xmlns="http://www.w3.org/2000/svg"
   xmlns:sodipodi="http://sodipodi.sourceforge.net/DTD/sodipodi-0.dtd"
   xmlns:inkscape="http://www.inkscape.org/namespaces/inkscape"
   version="1.1"
   x="0px"
   y="0px"
   viewBox="0 0 96.228928 94.948776"
   enable-background="new 0 0 100 100"
   xml:space="preserve"
   id="svg2"
   inkscape:version="0.91 r13725"
   sodipodi:docname="football_1.svg"
   width="96.228928"
   height="94.948776"><metadata
     id="metadata26"><rdf:RDF><cc:Work
         rdf:about=""><dc:format>image/svg+xml</dc:format><dc:type
           rdf:resource="http://purl.org/dc/dcmitype/StillImage" /><dc:title></dc:title></cc:Work></rdf:RDF></metadata><defs
     id="defs24" /><sodipodi:namedview
     pagecolor="#ffffff"
     bordercolor="#666666"
     borderopacity="1"
     objecttolerance="10"
     gridtolerance="10"
     guidetolerance="10"
     inkscape:pageopacity="0"
     inkscape:pageshadow="2"
     inkscape:window-width="1158"
     inkscape:window-height="705"
     id="namedview22"
     showgrid="false"
     inkscape:zoom="1.888"
     inkscape:cx="48.691679"
     inkscape:cy="34.211776"
     inkscape:window-x="35"
     inkscape:window-y="14"
     inkscape:window-maximized="0"
     inkscape:current-layer="svg2"
     fit-margin-top="0"
     fit-margin-left="0"
     fit-margin-right="0"
     fit-margin-bottom="0" /><g
     id="g4"
     transform="translate(-1.3083208,-1.763)"><path
       d="m 58.453,85.914 c 2.111,-6.338 16.9,-24.295 26.406,-27.464 4.227,10.563 9.508,29.577 6.339,32.745 -3.169,3.17 -27.464,-3.168 -32.745,-5.281 z"
       id="path6"
       inkscape:connector-curvature="0" /><path
       d="m 85.917,58.45 c 2.112,-1.056 5.281,-3.169 9.507,1.057 2.112,2.112 4.227,29.576 -2.111,30.634 C 93.312,84.857 92.255,69.014 85.917,58.45 Z"
       id="path8"
       inkscape:connector-curvature="0" /><path
       d="m 73.627,36.165 c -0.084,0.038 -0.173,0.067 -0.256,0.108 -0.635,0.312 -1.234,0.69 -1.727,1.13 -0.24,0.222 -0.468,0.449 -0.619,0.702 -0.432,0.078 -0.846,0.159 -1.383,0.448 -0.334,-0.473 -0.387,-1.105 -0.365,-1.67 0.3,-0.393 0.611,-0.747 0.955,-1.051 0.654,-0.583 1.369,-1.026 2.106,-1.398 -0.899,-1.178 -1.881,-2.401 -2.926,-3.65 -0.257,0.091 -0.513,0.183 -0.759,0.291 -0.625,0.274 -1.219,0.604 -1.701,0.995 -0.236,0.197 -0.458,0.397 -0.604,0.625 -0.418,0.044 -0.824,0.092 -1.361,0.36 -0.334,-0.458 -0.379,-1.086 -0.344,-1.643 0.311,-0.375 0.629,-0.706 0.979,-0.983 0.69,-0.557 1.435,-0.957 2.187,-1.289 0.049,-0.022 0.101,-0.037 0.149,-0.058 -1.048,-1.207 -2.158,-2.432 -3.304,-3.66 -0.483,0.419 -0.961,0.908 -1.475,1.414 l -0.845,0.813 c -0.503,0.027 -1.024,0.051 -1.578,-0.093 0.052,-0.581 0.104,-1.032 0.159,-1.501 0.271,-0.214 0.518,-0.471 0.78,-0.724 0.469,-0.461 0.954,-0.957 1.503,-1.441 -1.258,-1.309 -2.561,-2.612 -3.893,-3.898 -0.014,0.007 -0.029,0.011 -0.041,0.018 -0.558,0.295 -1.039,0.673 -1.4,1.124 -0.178,0.228 -0.342,0.465 -0.444,0.735 -0.409,0.137 -0.805,0.319 -1.317,0.611 -0.358,-0.438 -0.523,-0.97 -0.617,-1.509 0.212,-0.407 0.441,-0.807 0.732,-1.16 0.43,-0.536 0.943,-0.979 1.494,-1.336 -1.3,-1.216 -2.623,-2.404 -3.958,-3.556 -0.479,0.186 -0.914,0.418 -1.252,0.709 -0.233,0.205 -0.438,0.422 -0.56,0.686 -0.42,0.112 -0.83,0.295 -1.338,0.667 -0.374,-0.459 -0.519,-1.087 -0.523,-1.71 0.287,-0.475 0.641,-0.906 1.047,-1.247 0.276,-0.235 0.569,-0.424 0.867,-0.595 -1.062,-0.882 -2.127,-1.72 -3.191,-2.536 -0.487,0.264 -0.958,0.556 -1.375,0.904 -0.287,0.245 -0.567,0.496 -0.786,0.786 -0.48,0.084 -0.94,0.182 -1.537,0.38 -0.205,-0.572 -0.167,-1.188 -0.089,-1.761 0.341,-0.369 0.684,-0.72 1.061,-1.028 C 46.366,9.935 46.674,9.73 46.981,9.525 46.16,8.927 45.344,8.364 44.532,7.818 44.04,8.003 43.569,8.214 43.171,8.482 42.911,8.663 42.666,8.85 42.497,9.075 42.068,9.096 41.65,9.133 41.087,9.368 40.798,8.87 40.804,8.234 40.893,7.668 41.241,7.305 41.602,6.986 41.989,6.73 42.135,6.633 42.283,6.547 42.431,6.462 39.52,4.663 36.715,3.267 34.154,2.467 20.338,9.333 14.529,13.118 2.469,33.099 4.581,40.493 9.863,62.676 45.777,79.576 47.89,70.068 61.622,53.169 78.524,45.775 c -0.001,-1.92 -1.862,-5.41 -4.897,-9.61 z"
       id="path10"
       inkscape:connector-curvature="0" /><path
       d="M 89.086,94.365 C 7.75,80.633 1.413,32.043 1.413,32.043 c 0,0 -3.168,25.352 25.352,48.59 29.576,23.238 68.395,14.758 62.321,13.732 z"
       id="path12"
       inkscape:connector-curvature="0" /><path
       d="M 1.941,24.649 C 3.525,14.614 4.318,10.917 8.015,7.396 12.945,2.467 18.578,2.291 28.085,1.763 14.441,5.107 5.374,16.814 1.941,24.649 Z"
       id="path14"
       inkscape:connector-curvature="0" /><path
       d="m 36.271,2.466 c 2.397,1.202 4.647,2.429 6.786,3.67 0.441,-0.207 0.887,-0.376 1.335,-0.519 0.815,-0.257 1.637,-0.426 2.463,-0.541 0.414,-0.057 0.828,-0.099 1.247,-0.125 0.437,0.295 0.858,0.597 1.239,1.031 L 48.233,7.06 c -0.363,0.022 -0.727,0.059 -1.088,0.108 -0.59,0.082 -1.17,0.207 -1.733,0.363 0.818,0.5 1.622,1 2.403,1.503 0.235,-0.127 0.465,-0.266 0.709,-0.376 0.875,-0.389 1.804,-0.672 2.787,-0.794 0.492,-0.059 0.998,-0.077 1.51,-0.034 0.484,0.361 0.914,0.776 1.176,1.324 -0.551,0.25 -0.977,0.491 -1.352,0.781 -0.349,-0.029 -0.713,-0.018 -1.078,0.026 -0.562,0.069 -1.128,0.235 -1.681,0.442 1.192,0.807 2.345,1.616 3.448,2.426 0.146,-0.049 0.291,-0.101 0.436,-0.143 0.903,-0.26 1.801,-0.392 2.686,-0.472 0.441,-0.039 0.882,-0.064 1.318,-0.079 0.447,0.306 0.877,0.613 1.299,1.037 -0.422,0.423 -0.834,0.74 -1.229,1.075 -0.404,0.014 -0.806,0.037 -1.203,0.072 -0.386,0.034 -0.768,0.082 -1.141,0.144 1.372,1.065 2.686,2.128 3.91,3.186 0.404,-0.146 0.816,-0.267 1.229,-0.361 0.399,-0.091 0.803,-0.16 1.205,-0.211 0.441,0.268 0.857,0.55 1.245,0.96 l -0.983,1.136 c -0.276,0.035 -0.549,0.086 -0.818,0.143 1.263,1.151 2.445,2.293 3.547,3.417 0.247,-0.131 0.501,-0.251 0.77,-0.348 0.43,-0.155 0.879,-0.259 1.326,-0.309 0.483,0.268 0.9,0.584 1.236,1.036 -0.406,0.392 -0.739,0.71 -0.996,1.063 -0.271,0.031 -0.531,0.096 -0.786,0.183 1.287,1.389 2.468,2.75 3.526,4.063 0.07,-0.019 0.14,-0.043 0.211,-0.062 0.393,-0.098 0.79,-0.181 1.193,-0.246 0.453,0.251 0.896,0.516 1.291,0.921 l -0.955,1.164 c -0.101,0.016 -0.201,0.043 -0.303,0.062 0.93,1.231 1.766,2.417 2.51,3.542 0.336,-0.114 0.677,-0.223 1.025,-0.307 0.424,-0.101 0.858,-0.179 1.307,-0.224 0.477,0.275 0.936,0.583 1.281,1.049 -0.437,0.379 -0.77,0.703 -1.076,1.054 -0.336,0.033 -0.68,0.094 -1.021,0.175 -0.113,0.027 -0.224,0.069 -0.336,0.1 3.22,5.25 4.392,8.894 4.708,9.527 3.984,-1.105 7.917,-1.645 11.189,0.891 C 74.848,7.815 39.969,1.607 36.271,2.466 Z"
       id="path16"
       inkscape:connector-curvature="0" /></g></svg>